<?xml version="1.0" encoding="utf-8" standalone="no"?>
<!DOCTYPE svg PUBLIC "-//W3C//DTD SVG 1.1//EN"
  "http://www.w3.org/Graphics/SVG/1.1/DTD/svg11.dtd">
<svg xmlns:xlink="http://www.w3.org/1999/xlink" width="460.8pt" height="345.6pt" viewBox="0 0 460.8 345.6" xmlns="http://www.w3.org/2000/svg" version="1.1">
 <metadata>
  <rdf:RDF xmlns:dc="http://purl.org/dc/elements/1.1/" xmlns:cc="http://creativecommons.org/ns#" xmlns:rdf="http://www.w3.org/1999/02/22-rdf-syntax-ns#">
   <cc:Work>
    <dc:type rdf:resource="http://purl.org/dc/dcmitype/StillImage"/>
    <dc:date>2023-06-13T15:26:38.379769</dc:date>
    <dc:format>image/svg+xml</dc:format>
    <dc:creator>
     <cc:Agent>
      <dc:title>Matplotlib v3.5.1, https://matplotlib.org/</dc:title>
     </cc:Agent>
    </dc:creator>
   </cc:Work>
  </rdf:RDF>
 </metadata>
 <defs>
  <style type="text/css">*{stroke-linejoin: round; stroke-linecap: butt}</style>
 </defs>
 <g id="figure_1">
  <g id="patch_1">
   <path d="M 0 345.6 
L 460.8 345.6 
L 460.8 0 
L 0 0 
z
" style="fill: #ffffff"/>
  </g>
  <g id="axes_1">
   <g id="patch_2">
    <path d="M 57.6 276.48 
L 414.72 276.48 
L 414.72 41.472 
L 57.6 41.472 
z
" style="fill: #ffffff"/>
   </g>
   <g id="matplotlib.axis_1">
    <g id="xtick_1">
     <g id="line2d_1">
      <defs>
       <path id="me2d22ed20f" d="M 0 0 
L 0 3.5 
" style="stroke: #000000; stroke-width: 0.8"/>
      </defs>
      <g>
       <use xlink:href="#me2d22ed20f" x="60.444911" y="276.48" style="stroke: #000000; stroke-width: 0.8"/>
      </g>
     </g>
     <g id="text_1">
      <!-- Jul 2021 -->
      <g transform="translate(24.163246 310.407315)rotate(-30)scale(0.1 -0.1)">
       <defs>
        <path id="DejaVuSans-4a" d="M 628 4666 
L 1259 4666 
L 1259 325 
Q 1259 -519 939 -900 
Q 619 -1281 -91 -1281 
L -331 -1281 
L -331 -750 
L -134 -750 
Q 284 -750 456 -515 
Q 628 -281 628 325 
L 628 4666 
z
" transform="scale(0.015625)"/>
        <path id="DejaVuSans-75" d="M 544 1381 
L 544 3500 
L 1119 3500 
L 1119 1403 
Q 1119 906 1312 657 
Q 1506 409 1894 409 
Q 2359 409 2629 706 
Q 2900 1003 2900 1516 
L 2900 3500 
L 3475 3500 
L 3475 0 
L 2900 0 
L 2900 538 
Q 2691 219 2414 64 
Q 2138 -91 1772 -91 
Q 1169 -91 856 284 
Q 544 659 544 1381 
z
M 1991 3584 
L 1991 3584 
z
" transform="scale(0.015625)"/>
        <path id="DejaVuSans-6c" d="M 603 4863 
L 1178 4863 
L 1178 0 
L 603 0 
L 603 4863 
z
" transform="scale(0.015625)"/>
        <path id="DejaVuSans-20" transform="scale(0.015625)"/>
        <path id="DejaVuSans-32" d="M 1228 531 
L 3431 531 
L 3431 0 
L 469 0 
L 469 531 
Q 828 903 1448 1529 
Q 2069 2156 2228 2338 
Q 2531 2678 2651 2914 
Q 2772 3150 2772 3378 
Q 2772 3750 2511 3984 
Q 2250 4219 1831 4219 
Q 1534 4219 1204 4116 
Q 875 4013 500 3803 
L 500 4441 
Q 881 4594 1212 4672 
Q 1544 4750 1819 4750 
Q 2544 4750 2975 4387 
Q 3406 4025 3406 3419 
Q 3406 3131 3298 2873 
Q 3191 2616 2906 2266 
Q 2828 2175 2409 1742 
Q 1991 1309 1228 531 
z
" transform="scale(0.015625)"/>
        <path id="DejaVuSans-30" d="M 2034 4250 
Q 1547 4250 1301 3770 
Q 1056 3291 1056 2328 
Q 1056 1369 1301 889 
Q 1547 409 2034 409 
Q 2525 409 2770 889 
Q 3016 1369 3016 2328 
Q 3016 3291 2770 3770 
Q 2525 4250 2034 4250 
z
M 2034 4750 
Q 2819 4750 3233 4129 
Q 3647 3509 3647 2328 
Q 3647 1150 3233 529 
Q 2819 -91 2034 -91 
Q 1250 -91 836 529 
Q 422 1150 422 2328 
Q 422 3509 836 4129 
Q 1250 4750 2034 4750 
z
" transform="scale(0.015625)"/>
        <path id="DejaVuSans-31" d="M 794 531 
L 1825 531 
L 1825 4091 
L 703 3866 
L 703 4441 
L 1819 4666 
L 2450 4666 
L 2450 531 
L 3481 531 
L 3481 0 
L 794 0 
L 794 531 
z
" transform="scale(0.015625)"/>
       </defs>
       <use xlink:href="#DejaVuSans-4a"/>
       <use xlink:href="#DejaVuSans-75" x="29.492188"/>
       <use xlink:href="#DejaVuSans-6c" x="92.871094"/>
       <use xlink:href="#DejaVuSans-20" x="120.654297"/>
       <use xlink:href="#DejaVuSans-32" x="152.441406"/>
       <use xlink:href="#DejaVuSans-30" x="216.064453"/>
       <use xlink:href="#DejaVuSans-32" x="279.6875"/>
       <use xlink:href="#DejaVuSans-31" x="343.310547"/>
      </g>
     </g>
    </g>
    <g id="xtick_2">
     <g id="line2d_2">
      <g>
       <use xlink:href="#me2d22ed20f" x="104.43345" y="276.48" style="stroke: #000000; stroke-width: 0.8"/>
      </g>
     </g>
     <g id="text_2">
      <!-- Oct 2021 -->
      <g transform="translate(63.626803 313.019815)rotate(-30)scale(0.1 -0.1)">
       <defs>
        <path id="DejaVuSans-4f" d="M 2522 4238 
Q 1834 4238 1429 3725 
Q 1025 3213 1025 2328 
Q 1025 1447 1429 934 
Q 1834 422 2522 422 
Q 3209 422 3611 934 
Q 4013 1447 4013 2328 
Q 4013 3213 3611 3725 
Q 3209 4238 2522 4238 
z
M 2522 4750 
Q 3503 4750 4090 4092 
Q 4678 3434 4678 2328 
Q 4678 1225 4090 567 
Q 3503 -91 2522 -91 
Q 1538 -91 948 565 
Q 359 1222 359 2328 
Q 359 3434 948 4092 
Q 1538 4750 2522 4750 
z
" transform="scale(0.015625)"/>
        <path id="DejaVuSans-63" d="M 3122 3366 
L 3122 2828 
Q 2878 2963 2633 3030 
Q 2388 3097 2138 3097 
Q 1578 3097 1268 2742 
Q 959 2388 959 1747 
Q 959 1106 1268 751 
Q 1578 397 2138 397 
Q 2388 397 2633 464 
Q 2878 531 3122 666 
L 3122 134 
Q 2881 22 2623 -34 
Q 2366 -91 2075 -91 
Q 1284 -91 818 406 
Q 353 903 353 1747 
Q 353 2603 823 3093 
Q 1294 3584 2113 3584 
Q 2378 3584 2631 3529 
Q 2884 3475 3122 3366 
z
" transform="scale(0.015625)"/>
        <path id="DejaVuSans-74" d="M 1172 4494 
L 1172 3500 
L 2356 3500 
L 2356 3053 
L 1172 3053 
L 1172 1153 
Q 1172 725 1289 603 
Q 1406 481 1766 481 
L 2356 481 
L 2356 0 
L 1766 0 
Q 1100 0 847 248 
Q 594 497 594 1153 
L 594 3053 
L 172 3053 
L 172 3500 
L 594 3500 
L 594 4494 
L 1172 4494 
z
" transform="scale(0.015625)"/>
       </defs>
       <use xlink:href="#DejaVuSans-4f"/>
       <use xlink:href="#DejaVuSans-63" x="78.710938"/>
       <use xlink:href="#DejaVuSans-74" x="133.691406"/>
       <use xlink:href="#DejaVuSans-20" x="172.900391"/>
       <use xlink:href="#DejaVuSans-32" x="204.6875"/>
       <use xlink:href="#DejaVuSans-30" x="268.310547"/>
       <use xlink:href="#DejaVuSans-32" x="331.933594"/>
       <use xlink:href="#DejaVuSans-31" x="395.556641"/>
      </g>
     </g>
    </g>
    <g id="xtick_3">
     <g id="line2d_3">
      <g>
       <use xlink:href="#me2d22ed20f" x="148.42199" y="276.48" style="stroke: #000000; stroke-width: 0.8"/>
      </g>
     </g>
     <g id="text_3">
      <!-- Jan 2022 -->
      <g transform="translate(109.239139 312.082315)rotate(-30)scale(0.1 -0.1)">
       <defs>
        <path id="DejaVuSans-61" d="M 2194 1759 
Q 1497 1759 1228 1600 
Q 959 1441 959 1056 
Q 959 750 1161 570 
Q 1363 391 1709 391 
Q 2188 391 2477 730 
Q 2766 1069 2766 1631 
L 2766 1759 
L 2194 1759 
z
M 3341 1997 
L 3341 0 
L 2766 0 
L 2766 531 
Q 2569 213 2275 61 
Q 1981 -91 1556 -91 
Q 1019 -91 701 211 
Q 384 513 384 1019 
Q 384 1609 779 1909 
Q 1175 2209 1959 2209 
L 2766 2209 
L 2766 2266 
Q 2766 2663 2505 2880 
Q 2244 3097 1772 3097 
Q 1472 3097 1187 3025 
Q 903 2953 641 2809 
L 641 3341 
Q 956 3463 1253 3523 
Q 1550 3584 1831 3584 
Q 2591 3584 2966 3190 
Q 3341 2797 3341 1997 
z
" transform="scale(0.015625)"/>
        <path id="DejaVuSans-6e" d="M 3513 2113 
L 3513 0 
L 2938 0 
L 2938 2094 
Q 2938 2591 2744 2837 
Q 2550 3084 2163 3084 
Q 1697 3084 1428 2787 
Q 1159 2491 1159 1978 
L 1159 0 
L 581 0 
L 581 3500 
L 1159 3500 
L 1159 2956 
Q 1366 3272 1645 3428 
Q 1925 3584 2291 3584 
Q 2894 3584 3203 3211 
Q 3513 2838 3513 2113 
z
" transform="scale(0.015625)"/>
       </defs>
       <use xlink:href="#DejaVuSans-4a"/>
       <use xlink:href="#DejaVuSans-61" x="29.492188"/>
       <use xlink:href="#DejaVuSans-6e" x="90.771484"/>
       <use xlink:href="#DejaVuSans-20" x="154.150391"/>
       <use xlink:href="#DejaVuSans-32" x="185.9375"/>
       <use xlink:href="#DejaVuSans-30" x="249.560547"/>
       <use xlink:href="#DejaVuSans-32" x="313.183594"/>
       <use xlink:href="#DejaVuSans-32" x="376.806641"/>
      </g>
     </g>
    </g>
    <g id="xtick_4">
     <g id="line2d_4">
      <g>
       <use xlink:href="#me2d22ed20f" x="191.454256" y="276.48" style="stroke: #000000; stroke-width: 0.8"/>
      </g>
     </g>
     <g id="text_4">
      <!-- Apr 2022 -->
      <g transform="translate(150.63949 313.024502)rotate(-30)scale(0.1 -0.1)">
       <defs>
        <path id="DejaVuSans-41" d="M 2188 4044 
L 1331 1722 
L 3047 1722 
L 2188 4044 
z
M 1831 4666 
L 2547 4666 
L 4325 0 
L 3669 0 
L 3244 1197 
L 1141 1197 
L 716 0 
L 50 0 
L 1831 4666 
z
" transform="scale(0.015625)"/>
        <path id="DejaVuSans-70" d="M 1159 525 
L 1159 -1331 
L 581 -1331 
L 581 3500 
L 1159 3500 
L 1159 2969 
Q 1341 3281 1617 3432 
Q 1894 3584 2278 3584 
Q 2916 3584 3314 3078 
Q 3713 2572 3713 1747 
Q 3713 922 3314 415 
Q 2916 -91 2278 -91 
Q 1894 -91 1617 61 
Q 1341 213 1159 525 
z
M 3116 1747 
Q 3116 2381 2855 2742 
Q 2594 3103 2138 3103 
Q 1681 3103 1420 2742 
Q 1159 2381 1159 1747 
Q 1159 1113 1420 752 
Q 1681 391 2138 391 
Q 2594 391 2855 752 
Q 3116 1113 3116 1747 
z
" transform="scale(0.015625)"/>
        <path id="DejaVuSans-72" d="M 2631 2963 
Q 2534 3019 2420 3045 
Q 2306 3072 2169 3072 
Q 1681 3072 1420 2755 
Q 1159 2438 1159 1844 
L 1159 0 
L 581 0 
L 581 3500 
L 1159 3500 
L 1159 2956 
Q 1341 3275 1631 3429 
Q 1922 3584 2338 3584 
Q 2397 3584 2469 3576 
Q 2541 3569 2628 3553 
L 2631 2963 
z
" transform="scale(0.015625)"/>
       </defs>
       <use xlink:href="#DejaVuSans-41"/>
       <use xlink:href="#DejaVuSans-70" x="68.408203"/>
       <use xlink:href="#DejaVuSans-72" x="131.884766"/>
       <use xlink:href="#DejaVuSans-20" x="172.998047"/>
       <use xlink:href="#DejaVuSans-32" x="204.785156"/>
       <use xlink:href="#DejaVuSans-30" x="268.408203"/>
       <use xlink:href="#DejaVuSans-32" x="332.03125"/>
       <use xlink:href="#DejaVuSans-32" x="395.654297"/>
      </g>
     </g>
    </g>
    <g id="xtick_5">
     <g id="line2d_5">
      <g>
       <use xlink:href="#me2d22ed20f" x="234.964659" y="276.48" style="stroke: #000000; stroke-width: 0.8"/>
      </g>
     </g>
     <g id="text_5">
      <!-- Jul 2022 -->
      <g transform="translate(198.682994 310.407315)rotate(-30)scale(0.1 -0.1)">
       <use xlink:href="#DejaVuSans-4a"/>
       <use xlink:href="#DejaVuSans-75" x="29.492188"/>
       <use xlink:href="#DejaVuSans-6c" x="92.871094"/>
       <use xlink:href="#DejaVuSans-20" x="120.654297"/>
       <use xlink:href="#DejaVuSans-32" x="152.441406"/>
       <use xlink:href="#DejaVuSans-30" x="216.064453"/>
       <use xlink:href="#DejaVuSans-32" x="279.6875"/>
       <use xlink:href="#DejaVuSans-32" x="343.310547"/>
      </g>
     </g>
    </g>
    <g id="xtick_6">
     <g id="line2d_6">
      <g>
       <use xlink:href="#me2d22ed20f" x="278.953199" y="276.48" style="stroke: #000000; stroke-width: 0.8"/>
      </g>
     </g>
     <g id="text_6">
      <!-- Oct 2022 -->
      <g transform="translate(238.146551 313.019815)rotate(-30)scale(0.1 -0.1)">
       <use xlink:href="#DejaVuSans-4f"/>
       <use xlink:href="#DejaVuSans-63" x="78.710938"/>
       <use xlink:href="#DejaVuSans-74" x="133.691406"/>
       <use xlink:href="#DejaVuSans-20" x="172.900391"/>
       <use xlink:href="#DejaVuSans-32" x="204.6875"/>
       <use xlink:href="#DejaVuSans-30" x="268.310547"/>
       <use xlink:href="#DejaVuSans-32" x="331.933594"/>
       <use xlink:href="#DejaVuSans-32" x="395.556641"/>
      </g>
     </g>
    </g>
    <g id="xtick_7">
     <g id="line2d_7">
      <g>
       <use xlink:href="#me2d22ed20f" x="322.941738" y="276.48" style="stroke: #000000; stroke-width: 0.8"/>
      </g>
     </g>
     <g id="text_7">
      <!-- Jan 2023 -->
      <g transform="translate(283.758888 312.082315)rotate(-30)scale(0.1 -0.1)">
       <defs>
        <path id="DejaVuSans-33" d="M 2597 2516 
Q 3050 2419 3304 2112 
Q 3559 1806 3559 1356 
Q 3559 666 3084 287 
Q 2609 -91 1734 -91 
Q 1441 -91 1130 -33 
Q 819 25 488 141 
L 488 750 
Q 750 597 1062 519 
Q 1375 441 1716 441 
Q 2309 441 2620 675 
Q 2931 909 2931 1356 
Q 2931 1769 2642 2001 
Q 2353 2234 1838 2234 
L 1294 2234 
L 1294 2753 
L 1863 2753 
Q 2328 2753 2575 2939 
Q 2822 3125 2822 3475 
Q 2822 3834 2567 4026 
Q 2313 4219 1838 4219 
Q 1578 4219 1281 4162 
Q 984 4106 628 3988 
L 628 4550 
Q 988 4650 1302 4700 
Q 1616 4750 1894 4750 
Q 2613 4750 3031 4423 
Q 3450 4097 3450 3541 
Q 3450 3153 3228 2886 
Q 3006 2619 2597 2516 
z
" transform="scale(0.015625)"/>
       </defs>
       <use xlink:href="#DejaVuSans-4a"/>
       <use xlink:href="#DejaVuSans-61" x="29.492188"/>
       <use xlink:href="#DejaVuSans-6e" x="90.771484"/>
       <use xlink:href="#DejaVuSans-20" x="154.150391"/>
       <use xlink:href="#DejaVuSans-32" x="185.9375"/>
       <use xlink:href="#DejaVuSans-30" x="249.560547"/>
       <use xlink:href="#DejaVuSans-32" x="313.183594"/>
       <use xlink:href="#DejaVuSans-33" x="376.806641"/>
      </g>
     </g>
    </g>
    <g id="xtick_8">
     <g id="line2d_8">
      <g>
       <use xlink:href="#me2d22ed20f" x="365.974005" y="276.48" style="stroke: #000000; stroke-width: 0.8"/>
      </g>
     </g>
     <g id="text_8">
      <!-- Apr 2023 -->
      <g transform="translate(325.159238 313.024502)rotate(-30)scale(0.1 -0.1)">
       <use xlink:href="#DejaVuSans-41"/>
       <use xlink:href="#DejaVuSans-70" x="68.408203"/>
       <use xlink:href="#DejaVuSans-72" x="131.884766"/>
       <use xlink:href="#DejaVuSans-20" x="172.998047"/>
       <use xlink:href="#DejaVuSans-32" x="204.785156"/>
       <use xlink:href="#DejaVuSans-30" x="268.408203"/>
       <use xlink:href="#DejaVuSans-32" x="332.03125"/>
       <use xlink:href="#DejaVuSans-33" x="395.654297"/>
      </g>
     </g>
    </g>
    <g id="xtick_9">
     <g id="line2d_9">
      <g>
       <use xlink:href="#me2d22ed20f" x="409.484408" y="276.48" style="stroke: #000000; stroke-width: 0.8"/>
      </g>
     </g>
     <g id="text_9">
      <!-- Jul 2023 -->
      <g transform="translate(373.202743 310.407315)rotate(-30)scale(0.1 -0.1)">
       <use xlink:href="#DejaVuSans-4a"/>
       <use xlink:href="#DejaVuSans-75" x="29.492188"/>
       <use xlink:href="#DejaVuSans-6c" x="92.871094"/>
       <use xlink:href="#DejaVuSans-20" x="120.654297"/>
       <use xlink:href="#DejaVuSans-32" x="152.441406"/>
       <use xlink:href="#DejaVuSans-30" x="216.064453"/>
       <use xlink:href="#DejaVuSans-32" x="279.6875"/>
       <use xlink:href="#DejaVuSans-33" x="343.310547"/>
      </g>
     </g>
    </g>
    <g id="text_10">
     <!-- Date -->
     <g transform="translate(224.209219 326.424002)scale(0.1 -0.1)">
      <defs>
       <path id="DejaVuSans-44" d="M 1259 4147 
L 1259 519 
L 2022 519 
Q 2988 519 3436 956 
Q 3884 1394 3884 2338 
Q 3884 3275 3436 3711 
Q 2988 4147 2022 4147 
L 1259 4147 
z
M 628 4666 
L 1925 4666 
Q 3281 4666 3915 4102 
Q 4550 3538 4550 2338 
Q 4550 1131 3912 565 
Q 3275 0 1925 0 
L 628 0 
L 628 4666 
z
" transform="scale(0.015625)"/>
       <path id="DejaVuSans-65" d="M 3597 1894 
L 3597 1613 
L 953 1613 
Q 991 1019 1311 708 
Q 1631 397 2203 397 
Q 2534 397 2845 478 
Q 3156 559 3463 722 
L 3463 178 
Q 3153 47 2828 -22 
Q 2503 -91 2169 -91 
Q 1331 -91 842 396 
Q 353 884 353 1716 
Q 353 2575 817 3079 
Q 1281 3584 2069 3584 
Q 2775 3584 3186 3129 
Q 3597 2675 3597 1894 
z
M 3022 2063 
Q 3016 2534 2758 2815 
Q 2500 3097 2075 3097 
Q 1594 3097 1305 2825 
Q 1016 2553 972 2059 
L 3022 2063 
z
" transform="scale(0.015625)"/>
      </defs>
      <use xlink:href="#DejaVuSans-44"/>
      <use xlink:href="#DejaVuSans-61" x="77.001953"/>
      <use xlink:href="#DejaVuSans-74" x="138.28125"/>
      <use xlink:href="#DejaVuSans-65" x="177.490234"/>
     </g>
    </g>
   </g>
   <g id="matplotlib.axis_2">
    <g id="ytick_1">
     <g id="line2d_10">
      <defs>
       <path id="mfd5e81aa52" d="M 0 0 
L -3.5 0 
" style="stroke: #000000; stroke-width: 0.8"/>
      </defs>
      <g>
       <use xlink:href="#mfd5e81aa52" x="57.6" y="253.248122" style="stroke: #000000; stroke-width: 0.8"/>
      </g>
     </g>
     <g id="text_11">
      <!-- 1200 -->
      <g transform="translate(25.15 257.047341)scale(0.1 -0.1)">
       <use xlink:href="#DejaVuSans-31"/>
       <use xlink:href="#DejaVuSans-32" x="63.623047"/>
       <use xlink:href="#DejaVuSans-30" x="127.246094"/>
       <use xlink:href="#DejaVuSans-30" x="190.869141"/>
      </g>
     </g>
    </g>
    <g id="ytick_2">
     <g id="line2d_11">
      <g>
       <use xlink:href="#mfd5e81aa52" x="57.6" y="223.367893" style="stroke: #000000; stroke-width: 0.8"/>
      </g>
     </g>
     <g id="text_12">
      <!-- 1300 -->
      <g transform="translate(25.15 227.167112)scale(0.1 -0.1)">
       <use xlink:href="#DejaVuSans-31"/>
       <use xlink:href="#DejaVuSans-33" x="63.623047"/>
       <use xlink:href="#DejaVuSans-30" x="127.246094"/>
       <use xlink:href="#DejaVuSans-30" x="190.869141"/>
      </g>
     </g>
    </g>
    <g id="ytick_3">
     <g id="line2d_12">
      <g>
       <use xlink:href="#mfd5e81aa52" x="57.6" y="193.487664" style="stroke: #000000; stroke-width: 0.8"/>
      </g>
     </g>
     <g id="text_13">
      <!-- 1400 -->
      <g transform="translate(25.15 197.286883)scale(0.1 -0.1)">
       <defs>
        <path id="DejaVuSans-34" d="M 2419 4116 
L 825 1625 
L 2419 1625 
L 2419 4116 
z
M 2253 4666 
L 3047 4666 
L 3047 1625 
L 3713 1625 
L 3713 1100 
L 3047 1100 
L 3047 0 
L 2419 0 
L 2419 1100 
L 313 1100 
L 313 1709 
L 2253 4666 
z
" transform="scale(0.015625)"/>
       </defs>
       <use xlink:href="#DejaVuSans-31"/>
       <use xlink:href="#DejaVuSans-34" x="63.623047"/>
       <use xlink:href="#DejaVuSans-30" x="127.246094"/>
       <use xlink:href="#DejaVuSans-30" x="190.869141"/>
      </g>
     </g>
    </g>
    <g id="ytick_4">
     <g id="line2d_13">
      <g>
       <use xlink:href="#mfd5e81aa52" x="57.6" y="163.607435" style="stroke: #000000; stroke-width: 0.8"/>
      </g>
     </g>
     <g id="text_14">
      <!-- 1500 -->
      <g transform="translate(25.15 167.406654)scale(0.1 -0.1)">
       <defs>
        <path id="DejaVuSans-35" d="M 691 4666 
L 3169 4666 
L 3169 4134 
L 1269 4134 
L 1269 2991 
Q 1406 3038 1543 3061 
Q 1681 3084 1819 3084 
Q 2600 3084 3056 2656 
Q 3513 2228 3513 1497 
Q 3513 744 3044 326 
Q 2575 -91 1722 -91 
Q 1428 -91 1123 -41 
Q 819 9 494 109 
L 494 744 
Q 775 591 1075 516 
Q 1375 441 1709 441 
Q 2250 441 2565 725 
Q 2881 1009 2881 1497 
Q 2881 1984 2565 2268 
Q 2250 2553 1709 2553 
Q 1456 2553 1204 2497 
Q 953 2441 691 2322 
L 691 4666 
z
" transform="scale(0.015625)"/>
       </defs>
       <use xlink:href="#DejaVuSans-31"/>
       <use xlink:href="#DejaVuSans-35" x="63.623047"/>
       <use xlink:href="#DejaVuSans-30" x="127.246094"/>
       <use xlink:href="#DejaVuSans-30" x="190.869141"/>
      </g>
     </g>
    </g>
    <g id="ytick_5">
     <g id="line2d_14">
      <g>
       <use xlink:href="#mfd5e81aa52" x="57.6" y="133.727207" style="stroke: #000000; stroke-width: 0.8"/>
      </g>
     </g>
     <g id="text_15">
      <!-- 1600 -->
      <g transform="translate(25.15 137.526425)scale(0.1 -0.1)">
       <defs>
        <path id="DejaVuSans-36" d="M 2113 2584 
Q 1688 2584 1439 2293 
Q 1191 2003 1191 1497 
Q 1191 994 1439 701 
Q 1688 409 2113 409 
Q 2538 409 2786 701 
Q 3034 994 3034 1497 
Q 3034 2003 2786 2293 
Q 2538 2584 2113 2584 
z
M 3366 4563 
L 3366 3988 
Q 3128 4100 2886 4159 
Q 2644 4219 2406 4219 
Q 1781 4219 1451 3797 
Q 1122 3375 1075 2522 
Q 1259 2794 1537 2939 
Q 1816 3084 2150 3084 
Q 2853 3084 3261 2657 
Q 3669 2231 3669 1497 
Q 3669 778 3244 343 
Q 2819 -91 2113 -91 
Q 1303 -91 875 529 
Q 447 1150 447 2328 
Q 447 3434 972 4092 
Q 1497 4750 2381 4750 
Q 2619 4750 2861 4703 
Q 3103 4656 3366 4563 
z
" transform="scale(0.015625)"/>
       </defs>
       <use xlink:href="#DejaVuSans-31"/>
       <use xlink:href="#DejaVuSans-36" x="63.623047"/>
       <use xlink:href="#DejaVuSans-30" x="127.246094"/>
       <use xlink:href="#DejaVuSans-30" x="190.869141"/>
      </g>
     </g>
    </g>
    <g id="ytick_6">
     <g id="line2d_15">
      <g>
       <use xlink:href="#mfd5e81aa52" x="57.6" y="103.846978" style="stroke: #000000; stroke-width: 0.8"/>
      </g>
     </g>
     <g id="text_16">
      <!-- 1700 -->
      <g transform="translate(25.15 107.646196)scale(0.1 -0.1)">
       <defs>
        <path id="DejaVuSans-37" d="M 525 4666 
L 3525 4666 
L 3525 4397 
L 1831 0 
L 1172 0 
L 2766 4134 
L 525 4134 
L 525 4666 
z
" transform="scale(0.015625)"/>
       </defs>
       <use xlink:href="#DejaVuSans-31"/>
       <use xlink:href="#DejaVuSans-37" x="63.623047"/>
       <use xlink:href="#DejaVuSans-30" x="127.246094"/>
       <use xlink:href="#DejaVuSans-30" x="190.869141"/>
      </g>
     </g>
    </g>
    <g id="ytick_7">
     <g id="line2d_16">
      <g>
       <use xlink:href="#mfd5e81aa52" x="57.6" y="73.966749" style="stroke: #000000; stroke-width: 0.8"/>
      </g>
     </g>
     <g id="text_17">
      <!-- 1800 -->
      <g transform="translate(25.15 77.765968)scale(0.1 -0.1)">
       <defs>
        <path id="DejaVuSans-38" d="M 2034 2216 
Q 1584 2216 1326 1975 
Q 1069 1734 1069 1313 
Q 1069 891 1326 650 
Q 1584 409 2034 409 
Q 2484 409 2743 651 
Q 3003 894 3003 1313 
Q 3003 1734 2745 1975 
Q 2488 2216 2034 2216 
z
M 1403 2484 
Q 997 2584 770 2862 
Q 544 3141 544 3541 
Q 544 4100 942 4425 
Q 1341 4750 2034 4750 
Q 2731 4750 3128 4425 
Q 3525 4100 3525 3541 
Q 3525 3141 3298 2862 
Q 3072 2584 2669 2484 
Q 3125 2378 3379 2068 
Q 3634 1759 3634 1313 
Q 3634 634 3220 271 
Q 2806 -91 2034 -91 
Q 1263 -91 848 271 
Q 434 634 434 1313 
Q 434 1759 690 2068 
Q 947 2378 1403 2484 
z
M 1172 3481 
Q 1172 3119 1398 2916 
Q 1625 2713 2034 2713 
Q 2441 2713 2670 2916 
Q 2900 3119 2900 3481 
Q 2900 3844 2670 4047 
Q 2441 4250 2034 4250 
Q 1625 4250 1398 4047 
Q 1172 3844 1172 3481 
z
" transform="scale(0.015625)"/>
       </defs>
       <use xlink:href="#DejaVuSans-31"/>
       <use xlink:href="#DejaVuSans-38" x="63.623047"/>
       <use xlink:href="#DejaVuSans-30" x="127.246094"/>
       <use xlink:href="#DejaVuSans-30" x="190.869141"/>
      </g>
     </g>
    </g>
    <g id="ytick_8">
     <g id="line2d_17">
      <g>
       <use xlink:href="#mfd5e81aa52" x="57.6" y="44.08652" style="stroke: #000000; stroke-width: 0.8"/>
      </g>
     </g>
     <g id="text_18">
      <!-- 1900 -->
      <g transform="translate(25.15 47.885739)scale(0.1 -0.1)">
       <defs>
        <path id="DejaVuSans-39" d="M 703 97 
L 703 672 
Q 941 559 1184 500 
Q 1428 441 1663 441 
Q 2288 441 2617 861 
Q 2947 1281 2994 2138 
Q 2813 1869 2534 1725 
Q 2256 1581 1919 1581 
Q 1219 1581 811 2004 
Q 403 2428 403 3163 
Q 403 3881 828 4315 
Q 1253 4750 1959 4750 
Q 2769 4750 3195 4129 
Q 3622 3509 3622 2328 
Q 3622 1225 3098 567 
Q 2575 -91 1691 -91 
Q 1453 -91 1209 -44 
Q 966 3 703 97 
z
M 1959 2075 
Q 2384 2075 2632 2365 
Q 2881 2656 2881 3163 
Q 2881 3666 2632 3958 
Q 2384 4250 1959 4250 
Q 1534 4250 1286 3958 
Q 1038 3666 1038 3163 
Q 1038 2656 1286 2365 
Q 1534 2075 1959 2075 
z
" transform="scale(0.015625)"/>
       </defs>
       <use xlink:href="#DejaVuSans-31"/>
       <use xlink:href="#DejaVuSans-39" x="63.623047"/>
       <use xlink:href="#DejaVuSans-30" x="127.246094"/>
       <use xlink:href="#DejaVuSans-30" x="190.869141"/>
      </g>
     </g>
    </g>
    <g id="text_19">
     <!-- Rating -->
     <g transform="translate(19.070312 175.093969)rotate(-90)scale(0.1 -0.1)">
      <defs>
       <path id="DejaVuSans-52" d="M 2841 2188 
Q 3044 2119 3236 1894 
Q 3428 1669 3622 1275 
L 4263 0 
L 3584 0 
L 2988 1197 
Q 2756 1666 2539 1819 
Q 2322 1972 1947 1972 
L 1259 1972 
L 1259 0 
L 628 0 
L 628 4666 
L 2053 4666 
Q 2853 4666 3247 4331 
Q 3641 3997 3641 3322 
Q 3641 2881 3436 2590 
Q 3231 2300 2841 2188 
z
M 1259 4147 
L 1259 2491 
L 2053 2491 
Q 2509 2491 2742 2702 
Q 2975 2913 2975 3322 
Q 2975 3731 2742 3939 
Q 2509 4147 2053 4147 
L 1259 4147 
z
" transform="scale(0.015625)"/>
       <path id="DejaVuSans-69" d="M 603 3500 
L 1178 3500 
L 1178 0 
L 603 0 
L 603 3500 
z
M 603 4863 
L 1178 4863 
L 1178 4134 
L 603 4134 
L 603 4863 
z
" transform="scale(0.015625)"/>
       <path id="DejaVuSans-67" d="M 2906 1791 
Q 2906 2416 2648 2759 
Q 2391 3103 1925 3103 
Q 1463 3103 1205 2759 
Q 947 2416 947 1791 
Q 947 1169 1205 825 
Q 1463 481 1925 481 
Q 2391 481 2648 825 
Q 2906 1169 2906 1791 
z
M 3481 434 
Q 3481 -459 3084 -895 
Q 2688 -1331 1869 -1331 
Q 1566 -1331 1297 -1286 
Q 1028 -1241 775 -1147 
L 775 -588 
Q 1028 -725 1275 -790 
Q 1522 -856 1778 -856 
Q 2344 -856 2625 -561 
Q 2906 -266 2906 331 
L 2906 616 
Q 2728 306 2450 153 
Q 2172 0 1784 0 
Q 1141 0 747 490 
Q 353 981 353 1791 
Q 353 2603 747 3093 
Q 1141 3584 1784 3584 
Q 2172 3584 2450 3431 
Q 2728 3278 2906 2969 
L 2906 3500 
L 3481 3500 
L 3481 434 
z
" transform="scale(0.015625)"/>
      </defs>
      <use xlink:href="#DejaVuSans-52"/>
      <use xlink:href="#DejaVuSans-61" x="67.232422"/>
      <use xlink:href="#DejaVuSans-74" x="128.511719"/>
      <use xlink:href="#DejaVuSans-69" x="167.720703"/>
      <use xlink:href="#DejaVuSans-6e" x="195.503906"/>
      <use xlink:href="#DejaVuSans-67" x="258.882812"/>
     </g>
    </g>
   </g>
   <g id="line2d_18">
    <path d="M 73.832727 265.797818 
L 74.789 218.587057 
L 75.267136 212.013406 
L 75.745272 202.152931 
L 76.223409 198.268501 
L 76.701545 186.017607 
L 77.179681 178.846352 
L 77.657818 178.248748 
L 78.135954 168.985877 
L 78.61409 163.607435 
L 79.092227 161.217017 
L 79.570363 156.436181 
L 80.526635 157.930192 
L 81.004772 147.770914 
L 81.482908 146.276903 
L 81.961044 147.770914 
L 82.439181 149.86253 
L 82.917317 144.484089 
L 83.395453 142.093671 
L 83.87359 138.508043 
L 84.351726 133.428404 
L 84.829862 129.842777 
L 85.307998 127.751161 
L 85.786135 126.257149 
L 86.264271 130.141579 
L 86.742407 123.866731 
L 87.220544 114.305058 
L 87.69868 117.890685 
L 88.176816 117.293081 
L 88.654952 119.085894 
L 89.133089 119.085894 
L 89.611225 121.775115 
L 90.089361 126.555952 
L 91.52377 127.751161 
L 92.001907 125.958347 
L 92.480043 127.751161 
L 92.958179 124.763138 
L 93.436315 125.958347 
L 93.914452 124.464336 
L 94.392588 127.452359 
L 94.870724 125.360743 
L 95.348861 125.659545 
L 96.78327 123.567929 
L 97.261406 116.396674 
L 97.739542 118.48829 
L 98.217678 118.48829 
L 98.695815 114.305058 
L 99.173951 120.878708 
L 99.652087 109.823024 
L 100.60836 103.249373 
L 102.042769 101.157757 
L 102.520905 96.376921 
L 102.999041 88.608061 
L 103.477178 88.608061 
L 103.955314 86.815247 
L 104.43345 79.942795 
L 104.911587 83.22962 
L 105.389723 77.851179 
L 105.867859 77.552376 
L 106.345995 76.954772 
L 106.824132 81.735608 
L 107.302268 83.827224 
L 107.780404 91.894886 
L 108.258541 82.930818 
L 108.736677 82.632015 
L 109.214813 80.540399 
L 109.69295 85.620038 
L 110.171086 97.273327 
L 110.649222 100.858955 
L 111.605495 94.584107 
L 112.083631 97.273327 
L 113.039904 93.986502 
L 113.51804 93.6877 
L 113.996176 95.480514 
L 115.908721 92.193688 
L 116.386858 93.6877 
L 116.864994 92.492491 
L 117.34313 86.815247 
L 117.821267 85.022434 
L 119.255675 84.723631 
L 119.733812 82.930818 
L 120.211948 84.424829 
L 121.168221 90.699677 
L 121.646357 88.906863 
L 122.124493 90.998479 
L 122.60263 87.711654 
L 123.080766 92.791293 
L 123.558902 90.102072 
L 124.037038 88.608061 
L 124.515175 81.436806 
L 124.993311 82.333213 
L 125.471447 81.138004 
L 125.949584 92.193688 
L 126.42772 93.6877 
L 126.905856 92.791293 
L 127.383993 94.882909 
L 129.296538 100.26135 
L 130.25281 96.675723 
L 130.730947 89.504468 
L 131.209083 85.321236 
L 132.165355 88.906863 
L 132.643492 85.321236 
L 133.121628 88.010456 
L 133.599764 88.309259 
L 134.077901 82.930818 
L 134.556037 84.723631 
L 135.51231 98.169734 
L 135.990446 99.663746 
L 136.468582 97.870932 
L 137.424855 99.066141 
L 138.381127 95.779316 
L 139.3374 99.663746 
L 139.815536 97.870932 
L 140.293673 93.986502 
L 140.771809 92.193688 
L 145.553172 94.882909 
L 146.031308 92.492491 
L 146.987581 94.584107 
L 147.465717 93.090095 
L 147.943853 89.504468 
L 148.42199 87.412852 
L 148.900126 79.942795 
L 149.378262 82.034411 
L 149.856398 81.735608 
L 150.334535 82.034411 
L 150.812671 78.448783 
L 151.290807 76.058365 
L 151.768944 75.161958 
L 157.506579 77.253574 
L 158.462852 75.161958 
L 158.940988 74.564353 
L 160.853533 77.552376 
L 161.809806 75.161958 
L 164.200487 70.978726 
L 164.678624 71.277528 
L 165.634896 76.058365 
L 167.547441 78.448783 
L 169.938123 80.540399 
L 172.328804 85.022434 
L 172.806941 82.333213 
L 173.285077 86.815247 
L 174.24135 89.504468 
L 175.675758 85.022434 
L 176.153895 85.321236 
L 176.632031 89.205666 
L 177.588304 89.205666 
L 178.544576 87.11405 
L 180.935258 86.516445 
L 181.413394 84.126027 
L 184.282212 79.643992 
L 185.716621 76.954772 
L 189.063575 72.77154 
L 190.497984 70.082319 
L 190.97612 75.46076 
L 191.454256 75.46076 
L 191.932393 70.978726 
L 192.410529 68.88711 
L 197.670028 71.576331 
L 199.582573 69.783517 
L 201.016982 60.520646 
L 205.798345 73.369144 
L 206.276481 67.691901 
L 206.754618 67.990703 
L 209.145299 70.978726 
L 209.623436 68.588308 
L 210.579708 67.990703 
L 211.057844 65.899087 
L 211.535981 71.875133 
L 212.014117 67.990703 
L 212.492253 61.715855 
L 215.839207 57.532623 
L 216.79548 57.831425 
L 217.751753 59.624239 
L 218.229889 59.026634 
L 219.664298 55.142205 
L 221.098707 55.142205 
L 221.576843 53.349391 
L 222.054979 52.154182 
L 225.88007 56.038612 
L 226.358206 54.5446 
L 226.836342 54.245798 
L 228.270751 52.751786 
L 228.748887 52.751786 
L 229.227024 62.31346 
L 229.70516 60.520646 
L 230.183296 57.831425 
L 238.311613 62.911064 
L 238.78975 60.221844 
L 239.267886 55.142205 
L 240.224159 57.233821 
L 241.180431 54.843402 
L 242.136704 54.843402 
L 243.571113 55.441007 
L 244.049249 59.923041 
L 244.527385 55.739809 
L 245.005521 58.130228 
L 245.961794 60.819448 
L 248.352476 65.00268 
L 252.655702 58.727832 
L 254.090111 56.337414 
L 254.568247 56.935018 
L 255.046384 54.5446 
L 258.393338 63.209866 
L 276.562517 58.727832 
L 277.040653 65.600285 
L 277.51879 69.185912 
L 277.996926 65.600285 
L 278.475062 72.77154 
L 279.431335 73.070342 
L 279.909471 69.185912 
L 280.865744 72.173935 
L 281.34388 74.564353 
L 282.300153 68.588308 
L 284.212698 65.301483 
L 285.16897 65.301483 
L 286.603379 71.576331 
L 288.037788 65.00268 
L 288.515924 64.106273 
L 288.994061 58.42903 
L 289.472197 59.624239 
L 289.950333 58.130228 
L 290.42847 60.221844 
L 291.384742 63.807471 
L 291.862879 58.727832 
L 292.341015 56.935018 
L 293.775424 57.831425 
L 294.731696 60.221844 
L 296.166105 58.130228 
L 298.07865 58.42903 
L 298.556787 56.636216 
L 299.513059 60.520646 
L 299.991196 67.094296 
L 302.860013 62.612262 
L 306.685104 65.00268 
L 308.119513 67.393099 
L 308.597649 79.34519 
L 310.032058 81.138004 
L 312.900876 83.22962 
L 315.291557 81.436806 
L 315.769693 83.827224 
L 316.725966 79.942795 
L 318.638511 77.552376 
L 321.507329 77.552376 
L 321.985465 79.643992 
L 322.463602 73.667947 
L 326.288692 71.875133 
L 326.766828 73.966749 
L 327.244965 71.875133 
L 327.723101 70.679924 
L 328.201237 68.588308 
L 328.679373 68.289505 
L 335.373282 58.727832 
L 339.198372 60.819448 
L 339.676508 67.990703 
L 342.06719 71.875133 
L 343.023462 67.990703 
L 343.501599 68.289505 
L 343.979735 68.88711 
L 345.414144 68.289505 
L 348.761098 66.197889 
L 352.108052 68.588308 
L 352.586188 67.990703 
L 354.97687 69.484715 
L 355.455006 73.966749 
L 355.933142 75.759563 
L 356.411279 73.966749 
L 357.367551 72.173935 
L 357.845688 77.552376 
L 358.323824 77.253574 
L 358.80196 79.046388 
L 359.758233 77.552376 
L 361.670778 74.863156 
L 364.539596 78.747586 
L 365.495868 76.655969 
L 366.930277 74.265551 
L 368.842822 70.381121 
L 371.71164 67.990703 
L 375.058594 69.484715 
L 377.449276 71.875133 
L 378.883685 75.161958 
L 379.361821 70.978726 
L 380.318093 73.966749 
L 381.274366 78.448783 
L 382.230639 75.759563 
L 382.708775 70.978726 
L 384.62132 70.082319 
L 385.099456 72.472737 
L 385.577593 69.783517 
L 386.533865 67.990703 
L 387.012002 70.082319 
L 387.490138 73.070342 
L 388.44641 75.161958 
L 388.924547 74.564353 
L 398.487273 74.564353 
L 398.487273 74.564353 
" clip-path="url(#p38d6113db9)" style="fill: none; stroke: #1f77b4; stroke-width: 1.5; stroke-linecap: square"/>
   </g>
   <g id="patch_3">
    <path d="M 57.6 276.48 
L 57.6 41.472 
" style="fill: none; stroke: #000000; stroke-width: 0.8; stroke-linejoin: miter; stroke-linecap: square"/>
   </g>
   <g id="patch_4">
    <path d="M 414.72 276.48 
L 414.72 41.472 
" style="fill: none; stroke: #000000; stroke-width: 0.8; stroke-linejoin: miter; stroke-linecap: square"/>
   </g>
   <g id="patch_5">
    <path d="M 57.6 276.48 
L 414.72 276.48 
" style="fill: none; stroke: #000000; stroke-width: 0.8; stroke-linejoin: miter; stroke-linecap: square"/>
   </g>
   <g id="patch_6">
    <path d="M 57.6 41.472 
L 414.72 41.472 
" style="fill: none; stroke: #000000; stroke-width: 0.8; stroke-linejoin: miter; stroke-linecap: square"/>
   </g>
   <g id="text_20">
    <!-- Chess Rating History -->
    <g transform="translate(173.723437 35.472)scale(0.12 -0.12)">
     <defs>
      <path id="DejaVuSans-43" d="M 4122 4306 
L 4122 3641 
Q 3803 3938 3442 4084 
Q 3081 4231 2675 4231 
Q 1875 4231 1450 3742 
Q 1025 3253 1025 2328 
Q 1025 1406 1450 917 
Q 1875 428 2675 428 
Q 3081 428 3442 575 
Q 3803 722 4122 1019 
L 4122 359 
Q 3791 134 3420 21 
Q 3050 -91 2638 -91 
Q 1578 -91 968 557 
Q 359 1206 359 2328 
Q 359 3453 968 4101 
Q 1578 4750 2638 4750 
Q 3056 4750 3426 4639 
Q 3797 4528 4122 4306 
z
" transform="scale(0.015625)"/>
      <path id="DejaVuSans-68" d="M 3513 2113 
L 3513 0 
L 2938 0 
L 2938 2094 
Q 2938 2591 2744 2837 
Q 2550 3084 2163 3084 
Q 1697 3084 1428 2787 
Q 1159 2491 1159 1978 
L 1159 0 
L 581 0 
L 581 4863 
L 1159 4863 
L 1159 2956 
Q 1366 3272 1645 3428 
Q 1925 3584 2291 3584 
Q 2894 3584 3203 3211 
Q 3513 2838 3513 2113 
z
" transform="scale(0.015625)"/>
      <path id="DejaVuSans-73" d="M 2834 3397 
L 2834 2853 
Q 2591 2978 2328 3040 
Q 2066 3103 1784 3103 
Q 1356 3103 1142 2972 
Q 928 2841 928 2578 
Q 928 2378 1081 2264 
Q 1234 2150 1697 2047 
L 1894 2003 
Q 2506 1872 2764 1633 
Q 3022 1394 3022 966 
Q 3022 478 2636 193 
Q 2250 -91 1575 -91 
Q 1294 -91 989 -36 
Q 684 19 347 128 
L 347 722 
Q 666 556 975 473 
Q 1284 391 1588 391 
Q 1994 391 2212 530 
Q 2431 669 2431 922 
Q 2431 1156 2273 1281 
Q 2116 1406 1581 1522 
L 1381 1569 
Q 847 1681 609 1914 
Q 372 2147 372 2553 
Q 372 3047 722 3315 
Q 1072 3584 1716 3584 
Q 2034 3584 2315 3537 
Q 2597 3491 2834 3397 
z
" transform="scale(0.015625)"/>
      <path id="DejaVuSans-48" d="M 628 4666 
L 1259 4666 
L 1259 2753 
L 3553 2753 
L 3553 4666 
L 4184 4666 
L 4184 0 
L 3553 0 
L 3553 2222 
L 1259 2222 
L 1259 0 
L 628 0 
L 628 4666 
z
" transform="scale(0.015625)"/>
      <path id="DejaVuSans-6f" d="M 1959 3097 
Q 1497 3097 1228 2736 
Q 959 2375 959 1747 
Q 959 1119 1226 758 
Q 1494 397 1959 397 
Q 2419 397 2687 759 
Q 2956 1122 2956 1747 
Q 2956 2369 2687 2733 
Q 2419 3097 1959 3097 
z
M 1959 3584 
Q 2709 3584 3137 3096 
Q 3566 2609 3566 1747 
Q 3566 888 3137 398 
Q 2709 -91 1959 -91 
Q 1206 -91 779 398 
Q 353 888 353 1747 
Q 353 2609 779 3096 
Q 1206 3584 1959 3584 
z
" transform="scale(0.015625)"/>
      <path id="DejaVuSans-79" d="M 2059 -325 
Q 1816 -950 1584 -1140 
Q 1353 -1331 966 -1331 
L 506 -1331 
L 506 -850 
L 844 -850 
Q 1081 -850 1212 -737 
Q 1344 -625 1503 -206 
L 1606 56 
L 191 3500 
L 800 3500 
L 1894 763 
L 2988 3500 
L 3597 3500 
L 2059 -325 
z
" transform="scale(0.015625)"/>
     </defs>
     <use xlink:href="#DejaVuSans-43"/>
     <use xlink:href="#DejaVuSans-68" x="69.824219"/>
     <use xlink:href="#DejaVuSans-65" x="133.203125"/>
     <use xlink:href="#DejaVuSans-73" x="194.726562"/>
     <use xlink:href="#DejaVuSans-73" x="246.826172"/>
     <use xlink:href="#DejaVuSans-20" x="298.925781"/>
     <use xlink:href="#DejaVuSans-52" x="330.712891"/>
     <use xlink:href="#DejaVuSans-61" x="397.945312"/>
     <use xlink:href="#DejaVuSans-74" x="459.224609"/>
     <use xlink:href="#DejaVuSans-69" x="498.433594"/>
     <use xlink:href="#DejaVuSans-6e" x="526.216797"/>
     <use xlink:href="#DejaVuSans-67" x="589.595703"/>
     <use xlink:href="#DejaVuSans-20" x="653.072266"/>
     <use xlink:href="#DejaVuSans-48" x="684.859375"/>
     <use xlink:href="#DejaVuSans-69" x="760.054688"/>
     <use xlink:href="#DejaVuSans-73" x="787.837891"/>
     <use xlink:href="#DejaVuSans-74" x="839.9375"/>
     <use xlink:href="#DejaVuSans-6f" x="879.146484"/>
     <use xlink:href="#DejaVuSans-72" x="940.328125"/>
     <use xlink:href="#DejaVuSans-79" x="981.441406"/>
    </g>
   </g>
   <g id="legend_1">
    <g id="patch_7">
     <path d="M 270.30125 271.48 
L 407.72 271.48 
Q 409.72 271.48 409.72 269.48 
L 409.72 255.801875 
Q 409.72 253.801875 407.72 253.801875 
L 270.30125 253.801875 
Q 268.30125 253.801875 268.30125 255.801875 
L 268.30125 269.48 
Q 268.30125 271.48 270.30125 271.48 
z
" style="fill: #ffffff; opacity: 0.8; stroke: #cccccc; stroke-linejoin: miter"/>
    </g>
    <g id="line2d_19">
     <path d="M 272.30125 261.900312 
L 282.30125 261.900312 
L 292.30125 261.900312 
" style="fill: none; stroke: #1f77b4; stroke-width: 1.5; stroke-linecap: square"/>
    </g>
    <g id="text_21">
     <!-- Lichess RAPID Rating -->
     <g transform="translate(300.30125 265.400312)scale(0.1 -0.1)">
      <defs>
       <path id="DejaVuSans-4c" d="M 628 4666 
L 1259 4666 
L 1259 531 
L 3531 531 
L 3531 0 
L 628 0 
L 628 4666 
z
" transform="scale(0.015625)"/>
       <path id="DejaVuSans-50" d="M 1259 4147 
L 1259 2394 
L 2053 2394 
Q 2494 2394 2734 2622 
Q 2975 2850 2975 3272 
Q 2975 3691 2734 3919 
Q 2494 4147 2053 4147 
L 1259 4147 
z
M 628 4666 
L 2053 4666 
Q 2838 4666 3239 4311 
Q 3641 3956 3641 3272 
Q 3641 2581 3239 2228 
Q 2838 1875 2053 1875 
L 1259 1875 
L 1259 0 
L 628 0 
L 628 4666 
z
" transform="scale(0.015625)"/>
       <path id="DejaVuSans-49" d="M 628 4666 
L 1259 4666 
L 1259 0 
L 628 0 
L 628 4666 
z
" transform="scale(0.015625)"/>
      </defs>
      <use xlink:href="#DejaVuSans-4c"/>
      <use xlink:href="#DejaVuSans-69" x="55.712891"/>
      <use xlink:href="#DejaVuSans-63" x="83.496094"/>
      <use xlink:href="#DejaVuSans-68" x="138.476562"/>
      <use xlink:href="#DejaVuSans-65" x="201.855469"/>
      <use xlink:href="#DejaVuSans-73" x="263.378906"/>
      <use xlink:href="#DejaVuSans-73" x="315.478516"/>
      <use xlink:href="#DejaVuSans-20" x="367.578125"/>
      <use xlink:href="#DejaVuSans-52" x="399.365234"/>
      <use xlink:href="#DejaVuSans-41" x="464.847656"/>
      <use xlink:href="#DejaVuSans-50" x="533.255859"/>
      <use xlink:href="#DejaVuSans-49" x="593.558594"/>
      <use xlink:href="#DejaVuSans-44" x="623.050781"/>
      <use xlink:href="#DejaVuSans-20" x="700.052734"/>
      <use xlink:href="#DejaVuSans-52" x="731.839844"/>
      <use xlink:href="#DejaVuSans-61" x="799.072266"/>
      <use xlink:href="#DejaVuSans-74" x="860.351562"/>
      <use xlink:href="#DejaVuSans-69" x="899.560547"/>
      <use xlink:href="#DejaVuSans-6e" x="927.34375"/>
      <use xlink:href="#DejaVuSans-67" x="990.722656"/>
     </g>
    </g>
   </g>
  </g>
 </g>
 <defs>
  <clipPath id="p38d6113db9">
   <rect x="57.6" y="41.472" width="357.12" height="235.008"/>
  </clipPath>
 </defs>
</svg>
